<?xml version="1.0" standalone="no"?>
<!DOCTYPE svg PUBLIC "-//W3C//DTD SVG 20010904//EN"
 "http://www.w3.org/TR/2001/REC-SVG-20010904/DTD/svg10.dtd">
<svg version="1.0" xmlns="http://www.w3.org/2000/svg"
 width="227.000000pt" height="227.000000pt" viewBox="0 0 227.000000 227.000000"
 preserveAspectRatio="xMidYMid meet">
<metadata>
Created by potrace 1.10, written by Peter Selinger 2001-2011
</metadata>
<g transform="translate(0.000000,227.000000) scale(0.100000,-0.100000)"
fill="#000000" stroke="none">
<path d="M1033 1772 c-3 -179 -34 -445 -68 -577 -78 -299 -202 -459 -540 -699
-11 -8 -16 -18 -12 -22 11 -12 197 85 272 141 189 142 317 327 379 550 34 121
66 312 66 396 0 38 4 69 8 69 5 0 14 -48 21 -107 25 -217 64 -358 146 -528 95
-196 211 -347 348 -452 l57 -44 26 30 c24 29 107 64 137 58 7 -1 12 7 12 17 0
14 -8 20 -29 23 -93 13 -229 96 -325 199 -183 196 -284 432 -351 824 l-21 125
35 33 36 32 -25 10 c-13 5 -56 23 -96 40 -39 16 -72 30 -73 30 0 0 -2 -66 -3
-148z m86 69 c15 -9 17 -21 14 -93 -2 -46 -10 -99 -17 -118 -8 -19 -24 -100
-36 -180 -12 -80 -30 -181 -42 -225 -22 -89 -69 -215 -79 -215 -4 0 4 35 17
78 28 85 60 230 68 301 16 144 26 248 32 349 3 61 10 112 16 112 5 0 17 -4 27
-9z m351 -1009 c62 -72 151 -145 235 -193 l58 -33 -27 -23 c-15 -13 -31 -23
-37 -23 -5 0 -48 37 -95 83 -85 81 -155 169 -189 237 -19 39 -19 39 55 -48z"/>
</g>
</svg>
